<?xml version="1.0" encoding="UTF-8" standalone="no"?>
<!-- Generator: Adobe Illustrator 27.6.1, SVG Export Plug-In . SVG Version: 6.00 Build 0)  -->

<svg
   version="1.1"
   id="Layer_1"
   x="0px"
   y="0px"
   width="71"
   height="84"
   viewBox="0 0 70.999998 84"
   xml:space="preserve"
   sodipodi:docname="pyseas-logo.svg"
   inkscape:version="1.2.2 (732a01da63, 2022-12-09)"
   xmlns:inkscape="http://www.inkscape.org/namespaces/inkscape"
   xmlns:sodipodi="http://sodipodi.sourceforge.net/DTD/sodipodi-0.dtd"
   xmlns="http://www.w3.org/2000/svg"
   xmlns:svg="http://www.w3.org/2000/svg"><defs
   id="defs13" /><sodipodi:namedview
   id="namedview11"
   pagecolor="#ffffff"
   bordercolor="#000000"
   borderopacity="0.25"
   inkscape:showpageshadow="2"
   inkscape:pageopacity="0.0"
   inkscape:pagecheckerboard="0"
   inkscape:deskcolor="#d1d1d1"
   showgrid="false"
   inkscape:zoom="3.833967"
   inkscape:cx="143.32414"
   inkscape:cy="47.209588"
   inkscape:window-width="1920"
   inkscape:window-height="1057"
   inkscape:window-x="1912"
   inkscape:window-y="-8"
   inkscape:window-maximized="1"
   inkscape:current-layer="Layer_1" />

<g
   id="g8"
   transform="translate(1.3041323,1.3041323)">
	<path
   d="m 34.2,30.7 c 0,1.3 -0.1,3 -0.3,4.7 -0.3,3.2 -0.9,6.4 -1.7,9.6 -0.7,2.5 -1.6,4.9 -2.6,7.3 -0.7,1.7 -1.7,3.3 -2.6,4.9 -1.8,3.1 -3.9,6 -6.2,8.8 -1.7,2.1 -3.5,4.1 -5.4,6 -1.8,1.8 -3.7,3.6 -5.8,5.1 -0.9,0.7 -1.9,1.4 -2.8,2 C 5.6,79.8 4.4,80.4 3,80.5 2.1,80.5 1.4,80.3 1,79.6 0.7,79.1 0.7,78.6 0.9,78.1 1.2,77 1.8,76.1 2.5,75.3 4,73.4 5.6,71.6 7,69.7 c 2.6,-3.4 4.8,-7.1 6.6,-11 0.8,-1.7 1.6,-3.5 2.2,-5.2 0.7,-2 1.4,-4.1 1.8,-6.2 0.4,-1.9 0.7,-3.7 0.9,-5.6 0.3,-2.5 0.4,-5 0.2,-7.5 C 18.4,30 17.5,25.9 15.6,22.1 14.5,19.9 13.1,18 11.4,16.3 10,14.9 8.4,13.8 6.8,12.8 6.4,12.6 6.1,12.3 5.7,12.1 4.4,11.2 4.2,10 4.9,8.7 5.9,6.8 7.3,5.1 9,3.8 c 1.4,-1 2.8,-1.9 4.4,-2.4 2,-0.7 3.9,-0.6 5.8,0 1.6,0.5 3,1.3 4.3,2.3 2.5,1.9 4.5,4.3 6.1,7 1.4,2.3 2.4,4.9 3,7.5 0.4,1.6 0.8,3.2 1,4.9 0.2,1.6 0.3,3.2 0.4,4.8 0,0.9 0,1.8 0.1,3.1 z m 4,28.8 c 0,-2.7 0.4,-5.3 0.9,-8 0.9,-4.4 2.3,-8.6 4.3,-12.6 1.6,-3.3 3.6,-6.5 5.8,-9.4 2.2,-2.9 4.7,-5.6 7.5,-7.9 1.9,-1.5 3.8,-3 5.9,-4.1 0.7,-0.4 1.4,-0.7 2.2,-0.8 0.8,-0.1 1.6,0 2.3,0.4 0.6,0.3 0.7,0.7 0.4,1.2 -0.5,1 -1.1,1.9 -1.7,2.8 -2,3.1 -4,6.1 -5.8,9.3 -1.2,2.2 -2.4,4.4 -3.4,6.7 -1.2,2.6 -1.9,5.3 -2.6,8.1 -0.4,1.8 -0.7,3.6 -0.9,5.4 -0.2,1.9 -0.4,3.8 -0.4,5.7 0,1.7 0,3.4 0.1,5.1 0.3,2.5 0.8,5 2,7.2 1.5,2.9 3.8,4.9 6.9,6.1 0.5,0.2 1.1,0.4 1.6,0.7 0.4,0.2 0.5,0.4 0.4,0.9 -0.2,0.9 -0.9,1.4 -1.6,1.9 -1.4,1 -3,1.4 -4.7,1.8 -1.7,0.3 -3.4,0.4 -5.1,0.2 C 50.8,80 49.4,79.5 47.9,79 45.7,78.1 43.9,76.7 42.6,74.7 40.7,72.1 39.5,69.1 38.8,66 38.3,63.9 38.2,61.7 38.2,59.5 Z"
   id="path6" />
</g>
</svg>
